<svg width="180" height="180" viewBox="0 0 180 180" fill="none" xmlns="http://www.w3.org/2000/svg" role="img" aria-labelledby="title">
  <title id="title">Decorative rose corner</title>
  <path d="M31 136C54 126 70 110 82 88C91 70 104 51 126 42" stroke="#C9A227" stroke-width="2.6" stroke-linecap="round"/>
  <path d="M39 128C47 119 54 109 57 95" stroke="#6B5A1E" stroke-width="1.6" stroke-linecap="round" opacity=".55"/>
  <path d="M58 113C50 103 41 98 30 96C39 110 48 117 58 113Z" fill="#8B0000" opacity=".72"/>
  <path d="M67 101C62 88 52 80 38 77C45 94 55 104 67 101Z" fill="#8B0000" opacity=".58"/>
  <path d="M78 84C72 72 62 65 48 63C56 78 66 87 78 84Z" fill="#8B0000" opacity=".48"/>
  <path d="M94 66C105 55 118 45 134 38C129 52 119 64 104 73C101 74 97 72 94 66Z" fill="#8B0000" opacity=".52"/>
  <path d="M117 41C112 28 116 18 130 11C138 24 133 35 117 41Z" fill="#8B0000" opacity=".74"/>
  <path d="M126 43C136 32 149 31 164 39C154 52 141 54 126 43Z" fill="#8B0000" opacity=".7"/>
  <path d="M121 48C128 59 126 71 116 84C105 72 106 60 121 48Z" fill="#8B0000" opacity=".62"/>
  <path d="M120 42C126 35 135 34 144 40C137 48 129 49 120 42Z" fill="#FDF6F0" opacity=".42"/>
  <path d="M86 84C95 77 105 73 117 74" stroke="#C9A227" stroke-width="1.5" stroke-linecap="round" opacity=".75"/>
  <path d="M27 143C58 138 82 134 107 121" stroke="#C9A227" stroke-width="1.7" stroke-linecap="round" opacity=".72"/>
  <path d="M24 151C47 150 70 148 94 141" stroke="#C9A227" stroke-width="1.3" stroke-linecap="round" opacity=".48"/>
</svg>
